<?xml version="1.0" encoding="utf-8"?>
<!-- Generator: Adobe Illustrator 23.0.1, SVG Export Plug-In . SVG Version: 6.00 Build 0)  -->
<svg version="1.1" id="Layer_2" xmlns="http://www.w3.org/2000/svg" xmlns:xlink="http://www.w3.org/1999/xlink" x="0px" y="0px"
	 viewBox="0 0 100 100" style="enable-background:new 0 0 100 100;" xml:space="preserve">
<style type="text/css">
	.st0{fill:url(#SVGID_1_);}
	.st1{fill:url(#SVGID_2_);}
	.st2{fill:url(#SVGID_3_);}
	.st3{fill:url(#SVGID_4_);}
	.st4{fill:url(#SVGID_5_);}
	.st5{fill:url(#SVGID_6_);}
</style>
<g>
	<linearGradient id="SVGID_1_" gradientUnits="userSpaceOnUse" x1="16.438" y1="30.8145" x2="42.0399" y2="30.8145">
		<stop  offset="0" style="stop-color:#F15A24"/>
		<stop  offset="1" style="stop-color:#F7931E"/>
	</linearGradient>
	<path class="st0" d="M20.87,47.97c0,0-2.95-5.9-2.95-11.81s2.95-8.86,2.95-14.76s-4.43-7.38-4.43-7.38s4.43-1.48,13.28,1.48
		s12.32,7.86,12.32,7.86s-8.97,2.06-14.27,8.22C22.32,37.9,20.87,47.97,20.87,47.97z"/>
	<linearGradient id="SVGID_2_" gradientUnits="userSpaceOnUse" x1="24.4411" y1="77.2478" x2="67.6576" y2="77.2478">
		<stop  offset="0" style="stop-color:#F15A24"/>
		<stop  offset="1" style="stop-color:#F7931E"/>
	</linearGradient>
	<path class="st1" d="M24.44,63.93c0,0,2.39-5.3,10.08-5.82c7.58-0.51,12.07,2.32,16.73,2.91c11.53,1.45,16.41-2.6,16.41-2.6
		s-0.93,8-6.65,10.49s-12.57,0.93-16.73-0.93s-8.52-3.74-13.82-2.91c0,0,3.64,1.04,10.28,4.57c6.65,3.53,11.74,9.56,12.26,15.38
		c0.52,5.82-5.03,11.43-5.03,11.43s1.78-4.76-1.44-8.5c-3.22-3.74-5.87-5.24-11.4-8.43c-4.1-2.37-7.27-5.51-9.45-9.77
		C24.5,67.43,24.44,63.93,24.44,63.93z"/>
	<linearGradient id="SVGID_3_" gradientUnits="userSpaceOnUse" x1="24.8195" y1="64.0999" x2="61.6975" y2="27.222">
		<stop  offset="0" style="stop-color:#F15A24"/>
		<stop  offset="1" style="stop-color:#F7931E"/>
	</linearGradient>
	<path class="st2" d="M73.37,39c-0.19-0.56-1.25-0.93-3.95-2.49c-1.85-1.07-5.16-2.91-7.16-4.43c-2.67-2.04-3.55-3.86-7.28-5.33
		c-4.47-1.77-12.15-0.53-16.62,1.25c-3.15,1.25-10.7,6.34-13.61,13.92c-1.78,4.63-3.12,12.36-1.56,20.57c0,0,0.1-10.6,9.77-12.67
		c9.89-2.13,11.95,1.25,20.37,0.26c7.38-0.87,13.39-4.21,16.41-6.39C72.75,41.49,73.78,40.18,73.37,39z M63.99,40.83
		c-1.27,0-2.3-1.03-2.3-2.3c0-1.27,1.03-2.3,2.3-2.3c1.27,0,2.3,1.03,2.3,2.3C66.29,39.8,65.26,40.83,63.99,40.83z"/>
	<linearGradient id="SVGID_4_" gradientUnits="userSpaceOnUse" x1="73.8172" y1="29.0757" x2="73.8172" y2="25.4183">
		<stop  offset="5.618000e-03" style="stop-color:#005B97"/>
		<stop  offset="0.1348" style="stop-color:#0075BE"/>
		<stop  offset="0.4326" style="stop-color:#1E9CD7"/>
		<stop  offset="0.5351" style="stop-color:#47ACDE"/>
		<stop  offset="0.6934" style="stop-color:#80C2E7"/>
		<stop  offset="0.8294" style="stop-color:#A9D2EE"/>
		<stop  offset="0.9359" style="stop-color:#C3DCF2"/>
		<stop  offset="1" style="stop-color:#CCE0F4"/>
	</linearGradient>
	<circle class="st3" cx="73.82" cy="27.25" r="1.83"/>
	<linearGradient id="SVGID_5_" gradientUnits="userSpaceOnUse" x1="81.0356" y1="20.4921" x2="81.0356" y2="15.4394">
		<stop  offset="5.618000e-03" style="stop-color:#005B97"/>
		<stop  offset="0.1348" style="stop-color:#0075BE"/>
		<stop  offset="0.4326" style="stop-color:#1E9CD7"/>
		<stop  offset="0.5351" style="stop-color:#47ACDE"/>
		<stop  offset="0.6934" style="stop-color:#80C2E7"/>
		<stop  offset="0.8294" style="stop-color:#A9D2EE"/>
		<stop  offset="0.9359" style="stop-color:#C3DCF2"/>
		<stop  offset="1" style="stop-color:#CCE0F4"/>
	</linearGradient>
	<circle class="st4" cx="81.04" cy="17.97" r="2.53"/>
	<linearGradient id="SVGID_6_" gradientUnits="userSpaceOnUse" x1="71.7217" y1="10.131" x2="71.7217" y2="3.5545">
		<stop  offset="5.618000e-03" style="stop-color:#005B97"/>
		<stop  offset="0.1348" style="stop-color:#0075BE"/>
		<stop  offset="0.4326" style="stop-color:#1E9CD7"/>
		<stop  offset="0.5351" style="stop-color:#47ACDE"/>
		<stop  offset="0.6934" style="stop-color:#80C2E7"/>
		<stop  offset="0.8294" style="stop-color:#A9D2EE"/>
		<stop  offset="0.9359" style="stop-color:#C3DCF2"/>
		<stop  offset="1" style="stop-color:#CCE0F4"/>
	</linearGradient>
	<circle class="st5" cx="71.72" cy="6.84" r="3.29"/>
</g>
</svg>
